<mxfile host="app.diagrams.net" agent="Mozilla/5.0 (Windows NT 10.0; Win64; x64) AppleWebKit/537.36 (KHTML, like Gecko) Chrome/135.0.0.0 Safari/537.36" version="26.2.13">
  <diagram name="Page-1" id="ZakXmjOfpwx-5k14hfva">
    <mxGraphModel dx="3706" dy="1466" grid="1" gridSize="10" guides="1" tooltips="1" connect="1" arrows="1" fold="1" page="1" pageScale="1" pageWidth="850" pageHeight="1100" math="0" shadow="0">
      <root>
        <mxCell id="0" />
        <mxCell id="1" parent="0" />
        <mxCell id="eXFcgHt2co3P4tRYhQmg-19" value="" style="edgeStyle=orthogonalEdgeStyle;rounded=0;orthogonalLoop=1;jettySize=auto;html=1;" parent="1" source="eXFcgHt2co3P4tRYhQmg-1" target="eXFcgHt2co3P4tRYhQmg-3" edge="1">
          <mxGeometry relative="1" as="geometry" />
        </mxCell>
        <mxCell id="eXFcgHt2co3P4tRYhQmg-1" value="start" style="ellipse;whiteSpace=wrap;html=1;" parent="1" vertex="1">
          <mxGeometry x="335" y="10" width="180" height="110" as="geometry" />
        </mxCell>
        <mxCell id="eXFcgHt2co3P4tRYhQmg-3" value="initialize game" style="rounded=0;whiteSpace=wrap;html=1;" parent="1" vertex="1">
          <mxGeometry x="345" y="160" width="160" height="70" as="geometry" />
        </mxCell>
        <mxCell id="eXFcgHt2co3P4tRYhQmg-21" style="edgeStyle=orthogonalEdgeStyle;rounded=0;orthogonalLoop=1;jettySize=auto;html=1;exitX=0.5;exitY=1;exitDx=0;exitDy=0;entryX=0.5;entryY=0;entryDx=0;entryDy=0;" parent="1" source="eXFcgHt2co3P4tRYhQmg-4" target="eXFcgHt2co3P4tRYhQmg-11" edge="1">
          <mxGeometry relative="1" as="geometry" />
        </mxCell>
        <mxCell id="eXFcgHt2co3P4tRYhQmg-4" value="assign 500 coins to player&#39;s bank" style="rounded=0;whiteSpace=wrap;html=1;" parent="1" vertex="1">
          <mxGeometry x="340" y="270" width="160" height="70" as="geometry" />
        </mxCell>
        <mxCell id="eXFcgHt2co3P4tRYhQmg-31" value="" style="edgeStyle=orthogonalEdgeStyle;rounded=0;orthogonalLoop=1;jettySize=auto;html=1;" parent="1" source="eXFcgHt2co3P4tRYhQmg-10" target="eXFcgHt2co3P4tRYhQmg-15" edge="1">
          <mxGeometry relative="1" as="geometry" />
        </mxCell>
        <mxCell id="0YILS7i4Pp5YFgNBIdQj-55" style="edgeStyle=orthogonalEdgeStyle;rounded=0;orthogonalLoop=1;jettySize=auto;html=1;exitX=0;exitY=0.5;exitDx=0;exitDy=0;" edge="1" parent="1" source="eXFcgHt2co3P4tRYhQmg-10" target="0YILS7i4Pp5YFgNBIdQj-51">
          <mxGeometry relative="1" as="geometry" />
        </mxCell>
        <mxCell id="eXFcgHt2co3P4tRYhQmg-10" value="is player&#39;s bank &amp;gt; 0?" style="rhombus;whiteSpace=wrap;html=1;" parent="1" vertex="1">
          <mxGeometry x="337.5" y="590" width="167.5" height="160" as="geometry" />
        </mxCell>
        <mxCell id="eXFcgHt2co3P4tRYhQmg-22" style="edgeStyle=orthogonalEdgeStyle;rounded=0;orthogonalLoop=1;jettySize=auto;html=1;exitX=0.5;exitY=1;exitDx=0;exitDy=0;" parent="1" source="eXFcgHt2co3P4tRYhQmg-11" target="eXFcgHt2co3P4tRYhQmg-12" edge="1">
          <mxGeometry relative="1" as="geometry" />
        </mxCell>
        <mxCell id="eXFcgHt2co3P4tRYhQmg-11" value="generate a shuffled deck of 52 cards" style="rounded=0;whiteSpace=wrap;html=1;" parent="1" vertex="1">
          <mxGeometry x="340" y="380" width="160" height="70" as="geometry" />
        </mxCell>
        <mxCell id="eXFcgHt2co3P4tRYhQmg-23" style="edgeStyle=orthogonalEdgeStyle;rounded=0;orthogonalLoop=1;jettySize=auto;html=1;exitX=0.5;exitY=1;exitDx=0;exitDy=0;" parent="1" source="eXFcgHt2co3P4tRYhQmg-12" edge="1">
          <mxGeometry relative="1" as="geometry">
            <mxPoint x="420" y="590" as="targetPoint" />
          </mxGeometry>
        </mxCell>
        <mxCell id="eXFcgHt2co3P4tRYhQmg-12" value="clear the table from cards&amp;nbsp;" style="rounded=0;whiteSpace=wrap;html=1;" parent="1" vertex="1">
          <mxGeometry x="340" y="490" width="160" height="70" as="geometry" />
        </mxCell>
        <mxCell id="eXFcgHt2co3P4tRYhQmg-14" value="stop" style="ellipse;whiteSpace=wrap;html=1;" parent="1" vertex="1">
          <mxGeometry x="-330" y="3220" width="185" height="130" as="geometry" />
        </mxCell>
        <mxCell id="eXFcgHt2co3P4tRYhQmg-15" value="player input a bet &quot;10&quot; or &quot;50&quot; or &quot;100&quot; or &quot;500&quot;" style="shape=parallelogram;perimeter=parallelogramPerimeter;whiteSpace=wrap;html=1;fixedSize=1;" parent="1" vertex="1">
          <mxGeometry x="332.5" y="780" width="180" height="80" as="geometry" />
        </mxCell>
        <mxCell id="0YILS7i4Pp5YFgNBIdQj-64" style="edgeStyle=orthogonalEdgeStyle;rounded=0;orthogonalLoop=1;jettySize=auto;html=1;exitX=1;exitY=0.5;exitDx=0;exitDy=0;entryX=0;entryY=0.5;entryDx=0;entryDy=0;" edge="1" parent="1" source="eXFcgHt2co3P4tRYhQmg-16" target="0YILS7i4Pp5YFgNBIdQj-63">
          <mxGeometry relative="1" as="geometry" />
        </mxCell>
        <mxCell id="eXFcgHt2co3P4tRYhQmg-16" value="is player&#39;s bet &amp;lt;= bank?" style="rhombus;whiteSpace=wrap;html=1;" parent="1" vertex="1">
          <mxGeometry x="322.19" y="910" width="185" height="180" as="geometry" />
        </mxCell>
        <mxCell id="eXFcgHt2co3P4tRYhQmg-79" style="edgeStyle=orthogonalEdgeStyle;rounded=0;orthogonalLoop=1;jettySize=auto;html=1;exitX=0.5;exitY=1;exitDx=0;exitDy=0;entryX=0.5;entryY=0;entryDx=0;entryDy=0;" parent="1" source="eXFcgHt2co3P4tRYhQmg-17" target="eXFcgHt2co3P4tRYhQmg-59" edge="1">
          <mxGeometry relative="1" as="geometry" />
        </mxCell>
        <mxCell id="eXFcgHt2co3P4tRYhQmg-17" value="show one card for dealer and hide the second card&amp;nbsp;&lt;div&gt;show the player&#39;s two cards and his score&lt;/div&gt;" style="shape=parallelogram;perimeter=parallelogramPerimeter;whiteSpace=wrap;html=1;fixedSize=1;" parent="1" vertex="1">
          <mxGeometry x="322.5" y="1260" width="215" height="110" as="geometry" />
        </mxCell>
        <mxCell id="eXFcgHt2co3P4tRYhQmg-34" style="edgeStyle=orthogonalEdgeStyle;rounded=0;orthogonalLoop=1;jettySize=auto;html=1;exitX=0.5;exitY=1;exitDx=0;exitDy=0;" parent="1" source="eXFcgHt2co3P4tRYhQmg-18" target="eXFcgHt2co3P4tRYhQmg-17" edge="1">
          <mxGeometry relative="1" as="geometry" />
        </mxCell>
        <mxCell id="eXFcgHt2co3P4tRYhQmg-18" value="assign 2 card to player&amp;nbsp;&lt;div&gt;assign 2 cards to dealer&lt;/div&gt;&lt;div&gt;calculate player&#39;s score and dealer&#39;s score&lt;/div&gt;" style="rounded=0;whiteSpace=wrap;html=1;" parent="1" vertex="1">
          <mxGeometry x="340" y="1120" width="180" height="80" as="geometry" />
        </mxCell>
        <mxCell id="eXFcgHt2co3P4tRYhQmg-20" style="edgeStyle=orthogonalEdgeStyle;rounded=0;orthogonalLoop=1;jettySize=auto;html=1;exitX=0.5;exitY=1;exitDx=0;exitDy=0;entryX=0.556;entryY=-0.029;entryDx=0;entryDy=0;entryPerimeter=0;" parent="1" source="eXFcgHt2co3P4tRYhQmg-3" target="eXFcgHt2co3P4tRYhQmg-4" edge="1">
          <mxGeometry relative="1" as="geometry" />
        </mxCell>
        <mxCell id="eXFcgHt2co3P4tRYhQmg-36" style="edgeStyle=orthogonalEdgeStyle;rounded=0;orthogonalLoop=1;jettySize=auto;html=1;exitX=0.5;exitY=1;exitDx=0;exitDy=0;entryX=0.5;entryY=0;entryDx=0;entryDy=0;" parent="1" source="eXFcgHt2co3P4tRYhQmg-25" target="eXFcgHt2co3P4tRYhQmg-26" edge="1">
          <mxGeometry relative="1" as="geometry" />
        </mxCell>
        <mxCell id="eXFcgHt2co3P4tRYhQmg-25" value="player chooses &quot;hit&quot; or &quot;stand&quot; or &quot;double&quot;" style="shape=parallelogram;perimeter=parallelogramPerimeter;whiteSpace=wrap;html=1;fixedSize=1;" parent="1" vertex="1">
          <mxGeometry x="320" y="1800" width="200" height="100" as="geometry" />
        </mxCell>
        <mxCell id="eXFcgHt2co3P4tRYhQmg-100" style="edgeStyle=orthogonalEdgeStyle;rounded=0;orthogonalLoop=1;jettySize=auto;html=1;exitX=0.5;exitY=1;exitDx=0;exitDy=0;entryX=0.5;entryY=0;entryDx=0;entryDy=0;" parent="1" source="eXFcgHt2co3P4tRYhQmg-26" target="eXFcgHt2co3P4tRYhQmg-29" edge="1">
          <mxGeometry relative="1" as="geometry" />
        </mxCell>
        <mxCell id="0YILS7i4Pp5YFgNBIdQj-17" style="edgeStyle=orthogonalEdgeStyle;rounded=0;orthogonalLoop=1;jettySize=auto;html=1;exitX=0;exitY=0.5;exitDx=0;exitDy=0;" edge="1" parent="1" source="eXFcgHt2co3P4tRYhQmg-26" target="eXFcgHt2co3P4tRYhQmg-27">
          <mxGeometry relative="1" as="geometry" />
        </mxCell>
        <mxCell id="eXFcgHt2co3P4tRYhQmg-26" value="is player hitting?" style="rhombus;whiteSpace=wrap;html=1;" parent="1" vertex="1">
          <mxGeometry x="335" y="1930" width="150" height="140" as="geometry" />
        </mxCell>
        <mxCell id="0YILS7i4Pp5YFgNBIdQj-20" style="edgeStyle=orthogonalEdgeStyle;rounded=0;orthogonalLoop=1;jettySize=auto;html=1;exitX=0;exitY=0.5;exitDx=0;exitDy=0;" edge="1" parent="1" source="eXFcgHt2co3P4tRYhQmg-27">
          <mxGeometry relative="1" as="geometry">
            <mxPoint x="430" y="1580" as="targetPoint" />
            <Array as="points">
              <mxPoint x="-120" y="2000" />
            </Array>
          </mxGeometry>
        </mxCell>
        <mxCell id="eXFcgHt2co3P4tRYhQmg-27" value="assign another card for player&lt;div&gt;update the score&lt;/div&gt;" style="rounded=0;whiteSpace=wrap;html=1;" parent="1" vertex="1">
          <mxGeometry x="-59.999999999999886" y="1965" width="157.5" height="70" as="geometry" />
        </mxCell>
        <mxCell id="eXFcgHt2co3P4tRYhQmg-105" style="edgeStyle=orthogonalEdgeStyle;rounded=0;orthogonalLoop=1;jettySize=auto;html=1;exitX=0.5;exitY=1;exitDx=0;exitDy=0;entryX=0.5;entryY=0;entryDx=0;entryDy=0;" parent="1" source="eXFcgHt2co3P4tRYhQmg-29" target="eXFcgHt2co3P4tRYhQmg-76" edge="1">
          <mxGeometry relative="1" as="geometry" />
        </mxCell>
        <mxCell id="0YILS7i4Pp5YFgNBIdQj-19" style="edgeStyle=orthogonalEdgeStyle;rounded=0;orthogonalLoop=1;jettySize=auto;html=1;exitX=0;exitY=0.5;exitDx=0;exitDy=0;" edge="1" parent="1" source="eXFcgHt2co3P4tRYhQmg-29" target="eXFcgHt2co3P4tRYhQmg-65">
          <mxGeometry relative="1" as="geometry" />
        </mxCell>
        <mxCell id="eXFcgHt2co3P4tRYhQmg-29" value="is player doubling?" style="rhombus;whiteSpace=wrap;html=1;" parent="1" vertex="1">
          <mxGeometry x="325" y="2110" width="170" height="160" as="geometry" />
        </mxCell>
        <mxCell id="eXFcgHt2co3P4tRYhQmg-32" style="edgeStyle=orthogonalEdgeStyle;rounded=0;orthogonalLoop=1;jettySize=auto;html=1;exitX=0.5;exitY=1;exitDx=0;exitDy=0;entryX=0.538;entryY=0.011;entryDx=0;entryDy=0;entryPerimeter=0;" parent="1" source="eXFcgHt2co3P4tRYhQmg-15" target="eXFcgHt2co3P4tRYhQmg-16" edge="1">
          <mxGeometry relative="1" as="geometry" />
        </mxCell>
        <mxCell id="eXFcgHt2co3P4tRYhQmg-33" style="edgeStyle=orthogonalEdgeStyle;rounded=0;orthogonalLoop=1;jettySize=auto;html=1;exitX=0.5;exitY=1;exitDx=0;exitDy=0;entryX=0.428;entryY=0;entryDx=0;entryDy=0;entryPerimeter=0;" parent="1" source="eXFcgHt2co3P4tRYhQmg-16" target="eXFcgHt2co3P4tRYhQmg-18" edge="1">
          <mxGeometry relative="1" as="geometry" />
        </mxCell>
        <mxCell id="0YILS7i4Pp5YFgNBIdQj-38" style="edgeStyle=orthogonalEdgeStyle;rounded=0;orthogonalLoop=1;jettySize=auto;html=1;exitX=1;exitY=0.5;exitDx=0;exitDy=0;entryX=0;entryY=0.5;entryDx=0;entryDy=0;" edge="1" parent="1" source="eXFcgHt2co3P4tRYhQmg-46" target="eXFcgHt2co3P4tRYhQmg-56">
          <mxGeometry relative="1" as="geometry" />
        </mxCell>
        <mxCell id="0YILS7i4Pp5YFgNBIdQj-85" style="edgeStyle=orthogonalEdgeStyle;rounded=0;orthogonalLoop=1;jettySize=auto;html=1;exitX=0.5;exitY=1;exitDx=0;exitDy=0;" edge="1" parent="1" source="eXFcgHt2co3P4tRYhQmg-46" target="0YILS7i4Pp5YFgNBIdQj-84">
          <mxGeometry relative="1" as="geometry" />
        </mxCell>
        <mxCell id="eXFcgHt2co3P4tRYhQmg-46" value="is player&#39;s score = dealer&#39;s score?" style="rhombus;whiteSpace=wrap;html=1;" parent="1" vertex="1">
          <mxGeometry x="324.69" y="2870" width="172.5" height="150" as="geometry" />
        </mxCell>
        <mxCell id="0YILS7i4Pp5YFgNBIdQj-49" style="edgeStyle=orthogonalEdgeStyle;rounded=0;orthogonalLoop=1;jettySize=auto;html=1;exitX=0;exitY=0.5;exitDx=0;exitDy=0;" edge="1" parent="1" source="eXFcgHt2co3P4tRYhQmg-48">
          <mxGeometry relative="1" as="geometry">
            <mxPoint x="410" y="2300" as="targetPoint" />
            <Array as="points">
              <mxPoint x="180" y="3250" />
              <mxPoint x="180" y="2300" />
            </Array>
          </mxGeometry>
        </mxCell>
        <mxCell id="eXFcgHt2co3P4tRYhQmg-48" value="deal another card to dealer&amp;nbsp;&lt;div&gt;update dealer score&lt;/div&gt;" style="rounded=0;whiteSpace=wrap;html=1;" parent="1" vertex="1">
          <mxGeometry x="325.94" y="3230" width="170" height="60" as="geometry" />
        </mxCell>
        <mxCell id="0YILS7i4Pp5YFgNBIdQj-34" style="edgeStyle=orthogonalEdgeStyle;rounded=0;orthogonalLoop=1;jettySize=auto;html=1;exitX=1;exitY=0.5;exitDx=0;exitDy=0;entryX=0;entryY=0.5;entryDx=0;entryDy=0;" edge="1" parent="1" source="eXFcgHt2co3P4tRYhQmg-49" target="0YILS7i4Pp5YFgNBIdQj-30">
          <mxGeometry relative="1" as="geometry" />
        </mxCell>
        <mxCell id="0YILS7i4Pp5YFgNBIdQj-40" style="edgeStyle=orthogonalEdgeStyle;rounded=0;orthogonalLoop=1;jettySize=auto;html=1;exitX=0.5;exitY=1;exitDx=0;exitDy=0;" edge="1" parent="1" source="eXFcgHt2co3P4tRYhQmg-49" target="0YILS7i4Pp5YFgNBIdQj-31">
          <mxGeometry relative="1" as="geometry" />
        </mxCell>
        <mxCell id="eXFcgHt2co3P4tRYhQmg-49" value="is dealer&#39;s score = 21?" style="rhombus;whiteSpace=wrap;html=1;" parent="1" vertex="1">
          <mxGeometry x="317.49999999999994" y="2420" width="185" height="160" as="geometry" />
        </mxCell>
        <mxCell id="0YILS7i4Pp5YFgNBIdQj-42" style="edgeStyle=orthogonalEdgeStyle;rounded=0;orthogonalLoop=1;jettySize=auto;html=1;exitX=1;exitY=0.5;exitDx=0;exitDy=0;" edge="1" parent="1" source="0YILS7i4Pp5YFgNBIdQj-92">
          <mxGeometry relative="1" as="geometry">
            <mxPoint x="950" y="2720" as="targetPoint" />
          </mxGeometry>
        </mxCell>
        <mxCell id="eXFcgHt2co3P4tRYhQmg-56" value="give bank bet *1" style="rounded=0;whiteSpace=wrap;html=1;" parent="1" vertex="1">
          <mxGeometry x="570" y="2900" width="160" height="90" as="geometry" />
        </mxCell>
        <mxCell id="0YILS7i4Pp5YFgNBIdQj-36" style="edgeStyle=orthogonalEdgeStyle;rounded=0;orthogonalLoop=1;jettySize=auto;html=1;exitX=1;exitY=0.5;exitDx=0;exitDy=0;" edge="1" parent="1" source="eXFcgHt2co3P4tRYhQmg-57">
          <mxGeometry relative="1" as="geometry">
            <mxPoint x="950" y="2500" as="targetPoint" />
          </mxGeometry>
        </mxCell>
        <mxCell id="eXFcgHt2co3P4tRYhQmg-57" value="&quot;dealer&#39;s bust, player wins&quot;" style="shape=parallelogram;perimeter=parallelogramPerimeter;whiteSpace=wrap;html=1;fixedSize=1;" parent="1" vertex="1">
          <mxGeometry x="575" y="2675" width="165" height="90" as="geometry" />
        </mxCell>
        <mxCell id="eXFcgHt2co3P4tRYhQmg-103" style="edgeStyle=orthogonalEdgeStyle;rounded=0;orthogonalLoop=1;jettySize=auto;html=1;exitX=1;exitY=0.5;exitDx=0;exitDy=0;entryX=0;entryY=0.5;entryDx=0;entryDy=0;" parent="1" source="eXFcgHt2co3P4tRYhQmg-59" edge="1" target="eXFcgHt2co3P4tRYhQmg-60">
          <mxGeometry relative="1" as="geometry">
            <mxPoint x="600" y="1474.8235294117649" as="targetPoint" />
          </mxGeometry>
        </mxCell>
        <mxCell id="0YILS7i4Pp5YFgNBIdQj-13" style="edgeStyle=orthogonalEdgeStyle;rounded=0;orthogonalLoop=1;jettySize=auto;html=1;exitX=0.5;exitY=1;exitDx=0;exitDy=0;" edge="1" parent="1" source="eXFcgHt2co3P4tRYhQmg-59" target="0YILS7i4Pp5YFgNBIdQj-12">
          <mxGeometry relative="1" as="geometry" />
        </mxCell>
        <mxCell id="eXFcgHt2co3P4tRYhQmg-59" value="is player score = 21?" style="rhombus;whiteSpace=wrap;html=1;" parent="1" vertex="1">
          <mxGeometry x="346.24" y="1400" width="166.25" height="150" as="geometry" />
        </mxCell>
        <mxCell id="0YILS7i4Pp5YFgNBIdQj-45" style="edgeStyle=orthogonalEdgeStyle;rounded=0;orthogonalLoop=1;jettySize=auto;html=1;exitX=1;exitY=0.5;exitDx=0;exitDy=0;entryX=0.5;entryY=1;entryDx=0;entryDy=0;" edge="1" parent="1" source="eXFcgHt2co3P4tRYhQmg-60" target="0YILS7i4Pp5YFgNBIdQj-44">
          <mxGeometry relative="1" as="geometry" />
        </mxCell>
        <mxCell id="eXFcgHt2co3P4tRYhQmg-60" value="give player bank bet * 2.5" style="rounded=0;whiteSpace=wrap;html=1;" parent="1" vertex="1">
          <mxGeometry x="660" y="1425" width="178.75" height="100" as="geometry" />
        </mxCell>
        <mxCell id="0YILS7i4Pp5YFgNBIdQj-18" style="edgeStyle=orthogonalEdgeStyle;rounded=0;orthogonalLoop=1;jettySize=auto;html=1;exitX=0;exitY=0.5;exitDx=0;exitDy=0;" edge="1" parent="1" source="eXFcgHt2co3P4tRYhQmg-65">
          <mxGeometry relative="1" as="geometry">
            <mxPoint x="130" y="2000" as="targetPoint" />
          </mxGeometry>
        </mxCell>
        <mxCell id="eXFcgHt2co3P4tRYhQmg-65" value="set bet * 2" style="rounded=0;whiteSpace=wrap;html=1;" parent="1" vertex="1">
          <mxGeometry x="160" y="2160" width="120" height="60" as="geometry" />
        </mxCell>
        <mxCell id="0YILS7i4Pp5YFgNBIdQj-26" style="edgeStyle=orthogonalEdgeStyle;rounded=0;orthogonalLoop=1;jettySize=auto;html=1;exitX=1;exitY=0.5;exitDx=0;exitDy=0;" edge="1" parent="1" source="eXFcgHt2co3P4tRYhQmg-69">
          <mxGeometry relative="1" as="geometry">
            <mxPoint x="950" y="1480" as="targetPoint" />
          </mxGeometry>
        </mxCell>
        <mxCell id="eXFcgHt2co3P4tRYhQmg-69" value="&quot;you bust, better luck next time&quot;" style="shape=parallelogram;perimeter=parallelogramPerimeter;whiteSpace=wrap;html=1;fixedSize=1;" parent="1" vertex="1">
          <mxGeometry x="579.9999999999999" y="1635" width="193.12" height="80" as="geometry" />
        </mxCell>
        <mxCell id="eXFcgHt2co3P4tRYhQmg-106" style="edgeStyle=orthogonalEdgeStyle;rounded=0;orthogonalLoop=1;jettySize=auto;html=1;exitX=0.5;exitY=1;exitDx=0;exitDy=0;entryX=0.5;entryY=0;entryDx=0;entryDy=0;" parent="1" source="eXFcgHt2co3P4tRYhQmg-76" target="eXFcgHt2co3P4tRYhQmg-49" edge="1">
          <mxGeometry relative="1" as="geometry" />
        </mxCell>
        <mxCell id="eXFcgHt2co3P4tRYhQmg-76" value="show dealer&#39;s cards and score" style="shape=parallelogram;perimeter=parallelogramPerimeter;whiteSpace=wrap;html=1;fixedSize=1;" parent="1" vertex="1">
          <mxGeometry x="311.56" y="2320" width="198.75" height="70" as="geometry" />
        </mxCell>
        <mxCell id="0YILS7i4Pp5YFgNBIdQj-25" style="edgeStyle=orthogonalEdgeStyle;rounded=0;orthogonalLoop=1;jettySize=auto;html=1;exitX=1;exitY=0.5;exitDx=0;exitDy=0;" edge="1" parent="1" source="0YILS7i4Pp5YFgNBIdQj-12" target="eXFcgHt2co3P4tRYhQmg-69">
          <mxGeometry relative="1" as="geometry" />
        </mxCell>
        <mxCell id="0YILS7i4Pp5YFgNBIdQj-12" value="is player score &amp;lt; 21?" style="rhombus;whiteSpace=wrap;html=1;" vertex="1" parent="1">
          <mxGeometry x="346.88" y="1600" width="166.25" height="150" as="geometry" />
        </mxCell>
        <mxCell id="0YILS7i4Pp5YFgNBIdQj-14" style="edgeStyle=orthogonalEdgeStyle;rounded=0;orthogonalLoop=1;jettySize=auto;html=1;exitX=0.5;exitY=1;exitDx=0;exitDy=0;entryX=0.55;entryY=-0.008;entryDx=0;entryDy=0;entryPerimeter=0;" edge="1" parent="1" source="0YILS7i4Pp5YFgNBIdQj-12" target="eXFcgHt2co3P4tRYhQmg-25">
          <mxGeometry relative="1" as="geometry" />
        </mxCell>
        <mxCell id="0YILS7i4Pp5YFgNBIdQj-35" style="edgeStyle=orthogonalEdgeStyle;rounded=0;orthogonalLoop=1;jettySize=auto;html=1;exitX=1;exitY=0.5;exitDx=0;exitDy=0;" edge="1" parent="1" source="0YILS7i4Pp5YFgNBIdQj-30">
          <mxGeometry relative="1" as="geometry">
            <mxPoint x="950" y="1670" as="targetPoint" />
          </mxGeometry>
        </mxCell>
        <mxCell id="0YILS7i4Pp5YFgNBIdQj-30" value="&quot;dealer wins&quot;" style="shape=parallelogram;perimeter=parallelogramPerimeter;whiteSpace=wrap;html=1;fixedSize=1;" vertex="1" parent="1">
          <mxGeometry x="570" y="2460" width="170" height="80" as="geometry" />
        </mxCell>
        <mxCell id="0YILS7i4Pp5YFgNBIdQj-37" style="edgeStyle=orthogonalEdgeStyle;rounded=0;orthogonalLoop=1;jettySize=auto;html=1;exitX=1;exitY=0.5;exitDx=0;exitDy=0;entryX=0;entryY=0.5;entryDx=0;entryDy=0;" edge="1" parent="1" source="0YILS7i4Pp5YFgNBIdQj-31" target="eXFcgHt2co3P4tRYhQmg-57">
          <mxGeometry relative="1" as="geometry" />
        </mxCell>
        <mxCell id="0YILS7i4Pp5YFgNBIdQj-39" style="edgeStyle=orthogonalEdgeStyle;rounded=0;orthogonalLoop=1;jettySize=auto;html=1;exitX=0.5;exitY=1;exitDx=0;exitDy=0;entryX=0.5;entryY=0;entryDx=0;entryDy=0;" edge="1" parent="1" source="0YILS7i4Pp5YFgNBIdQj-31" target="eXFcgHt2co3P4tRYhQmg-46">
          <mxGeometry relative="1" as="geometry" />
        </mxCell>
        <mxCell id="0YILS7i4Pp5YFgNBIdQj-31" value="is dealer score &amp;gt; 21?" style="rhombus;whiteSpace=wrap;html=1;" vertex="1" parent="1">
          <mxGeometry x="300.94" y="2630" width="220" height="180" as="geometry" />
        </mxCell>
        <mxCell id="0YILS7i4Pp5YFgNBIdQj-47" style="edgeStyle=orthogonalEdgeStyle;rounded=0;orthogonalLoop=1;jettySize=auto;html=1;exitX=0;exitY=0.5;exitDx=0;exitDy=0;" edge="1" parent="1" source="0YILS7i4Pp5YFgNBIdQj-44">
          <mxGeometry relative="1" as="geometry">
            <mxPoint x="420" y="480" as="targetPoint" />
          </mxGeometry>
        </mxCell>
        <mxCell id="0YILS7i4Pp5YFgNBIdQj-44" value="show bank amount" style="shape=parallelogram;perimeter=parallelogramPerimeter;whiteSpace=wrap;html=1;fixedSize=1;" vertex="1" parent="1">
          <mxGeometry x="870" y="430" width="170" height="100" as="geometry" />
        </mxCell>
        <mxCell id="0YILS7i4Pp5YFgNBIdQj-56" style="edgeStyle=orthogonalEdgeStyle;rounded=0;orthogonalLoop=1;jettySize=auto;html=1;exitX=0.5;exitY=1;exitDx=0;exitDy=0;" edge="1" parent="1" source="0YILS7i4Pp5YFgNBIdQj-51" target="0YILS7i4Pp5YFgNBIdQj-52">
          <mxGeometry relative="1" as="geometry" />
        </mxCell>
        <mxCell id="0YILS7i4Pp5YFgNBIdQj-51" value="show maximum bank score" style="shape=parallelogram;perimeter=parallelogramPerimeter;whiteSpace=wrap;html=1;fixedSize=1;" vertex="1" parent="1">
          <mxGeometry x="60" y="630" width="200" height="80" as="geometry" />
        </mxCell>
        <mxCell id="0YILS7i4Pp5YFgNBIdQj-54" style="edgeStyle=orthogonalEdgeStyle;rounded=0;orthogonalLoop=1;jettySize=auto;html=1;exitX=0;exitY=0.5;exitDx=0;exitDy=0;" edge="1" parent="1" source="0YILS7i4Pp5YFgNBIdQj-52">
          <mxGeometry relative="1" as="geometry">
            <mxPoint x="430" y="140" as="targetPoint" />
            <Array as="points">
              <mxPoint x="-70" y="835" />
            </Array>
          </mxGeometry>
        </mxCell>
        <mxCell id="0YILS7i4Pp5YFgNBIdQj-58" style="edgeStyle=orthogonalEdgeStyle;rounded=0;orthogonalLoop=1;jettySize=auto;html=1;exitX=0.5;exitY=1;exitDx=0;exitDy=0;" edge="1" parent="1" source="0YILS7i4Pp5YFgNBIdQj-52">
          <mxGeometry relative="1" as="geometry">
            <mxPoint x="-250" y="3220" as="targetPoint" />
            <Array as="points">
              <mxPoint x="160" y="1060" />
              <mxPoint x="-250" y="1060" />
            </Array>
          </mxGeometry>
        </mxCell>
        <mxCell id="0YILS7i4Pp5YFgNBIdQj-52" value="does player want to restart" style="rhombus;whiteSpace=wrap;html=1;" vertex="1" parent="1">
          <mxGeometry x="80" y="760" width="160" height="150" as="geometry" />
        </mxCell>
        <mxCell id="0YILS7i4Pp5YFgNBIdQj-59" value="yes" style="text;html=1;align=center;verticalAlign=middle;whiteSpace=wrap;rounded=0;" vertex="1" parent="1">
          <mxGeometry x="420" y="870" width="60" height="30" as="geometry" />
        </mxCell>
        <mxCell id="0YILS7i4Pp5YFgNBIdQj-60" value="no" style="text;html=1;align=center;verticalAlign=middle;whiteSpace=wrap;rounded=0;" vertex="1" parent="1">
          <mxGeometry x="275" y="640" width="60" height="30" as="geometry" />
        </mxCell>
        <mxCell id="0YILS7i4Pp5YFgNBIdQj-61" value="yes" style="text;html=1;align=center;verticalAlign=middle;whiteSpace=wrap;rounded=0;" vertex="1" parent="1">
          <mxGeometry x="360" y="740" width="60" height="30" as="geometry" />
        </mxCell>
        <mxCell id="0YILS7i4Pp5YFgNBIdQj-62" value="no" style="text;html=1;align=center;verticalAlign=middle;whiteSpace=wrap;rounded=0;" vertex="1" parent="1">
          <mxGeometry x="160" y="730" width="60" height="30" as="geometry" />
        </mxCell>
        <mxCell id="0YILS7i4Pp5YFgNBIdQj-65" style="edgeStyle=orthogonalEdgeStyle;rounded=0;orthogonalLoop=1;jettySize=auto;html=1;exitX=1;exitY=0.5;exitDx=0;exitDy=0;entryX=1;entryY=0.75;entryDx=0;entryDy=0;" edge="1" parent="1" source="0YILS7i4Pp5YFgNBIdQj-63" target="0YILS7i4Pp5YFgNBIdQj-61">
          <mxGeometry relative="1" as="geometry">
            <mxPoint x="780" y="750" as="targetPoint" />
            <Array as="points">
              <mxPoint x="780" y="1000" />
              <mxPoint x="780" y="762" />
            </Array>
          </mxGeometry>
        </mxCell>
        <mxCell id="0YILS7i4Pp5YFgNBIdQj-63" value="&quot;player does not have that amount&quot;" style="shape=parallelogram;perimeter=parallelogramPerimeter;whiteSpace=wrap;html=1;fixedSize=1;" vertex="1" parent="1">
          <mxGeometry x="550" y="960" width="170" height="80" as="geometry" />
        </mxCell>
        <mxCell id="0YILS7i4Pp5YFgNBIdQj-66" value="yes" style="text;html=1;align=center;verticalAlign=middle;whiteSpace=wrap;rounded=0;" vertex="1" parent="1">
          <mxGeometry x="425" y="1080" width="60" height="30" as="geometry" />
        </mxCell>
        <mxCell id="0YILS7i4Pp5YFgNBIdQj-67" value="no" style="text;html=1;align=center;verticalAlign=middle;whiteSpace=wrap;rounded=0;" vertex="1" parent="1">
          <mxGeometry x="502.5" y="970" width="60" height="30" as="geometry" />
        </mxCell>
        <mxCell id="0YILS7i4Pp5YFgNBIdQj-68" value="no" style="text;html=1;align=center;verticalAlign=middle;whiteSpace=wrap;rounded=0;" vertex="1" parent="1">
          <mxGeometry x="440" y="1550" width="60" height="30" as="geometry" />
        </mxCell>
        <mxCell id="0YILS7i4Pp5YFgNBIdQj-69" value="yes" style="text;html=1;align=center;verticalAlign=middle;whiteSpace=wrap;rounded=0;" vertex="1" parent="1">
          <mxGeometry x="537.5" y="1440" width="60" height="30" as="geometry" />
        </mxCell>
        <mxCell id="0YILS7i4Pp5YFgNBIdQj-70" value="no" style="text;html=1;align=center;verticalAlign=middle;whiteSpace=wrap;rounded=0;" vertex="1" parent="1">
          <mxGeometry x="436.25" y="1760" width="60" height="30" as="geometry" />
        </mxCell>
        <mxCell id="0YILS7i4Pp5YFgNBIdQj-71" value="yes" style="text;html=1;align=center;verticalAlign=middle;whiteSpace=wrap;rounded=0;" vertex="1" parent="1">
          <mxGeometry x="520.94" y="1650" width="60" height="30" as="geometry" />
        </mxCell>
        <mxCell id="0YILS7i4Pp5YFgNBIdQj-72" value="no" style="text;html=1;align=center;verticalAlign=middle;whiteSpace=wrap;rounded=0;" vertex="1" parent="1">
          <mxGeometry x="410" y="2070" width="60" height="30" as="geometry" />
        </mxCell>
        <mxCell id="0YILS7i4Pp5YFgNBIdQj-73" value="yes" style="text;html=1;align=center;verticalAlign=middle;whiteSpace=wrap;rounded=0;" vertex="1" parent="1">
          <mxGeometry x="280.00000000000006" y="1965" width="60" height="30" as="geometry" />
        </mxCell>
        <mxCell id="0YILS7i4Pp5YFgNBIdQj-74" value="no" style="text;html=1;align=center;verticalAlign=middle;whiteSpace=wrap;rounded=0;" vertex="1" parent="1">
          <mxGeometry x="420" y="2270" width="60" height="30" as="geometry" />
        </mxCell>
        <mxCell id="0YILS7i4Pp5YFgNBIdQj-75" value="yes" style="text;html=1;align=center;verticalAlign=middle;whiteSpace=wrap;rounded=0;" vertex="1" parent="1">
          <mxGeometry x="272.50000000000006" y="2160" width="60" height="30" as="geometry" />
        </mxCell>
        <mxCell id="0YILS7i4Pp5YFgNBIdQj-76" value="no" style="text;html=1;align=center;verticalAlign=middle;whiteSpace=wrap;rounded=0;" vertex="1" parent="1">
          <mxGeometry x="410" y="2590" width="60" height="30" as="geometry" />
        </mxCell>
        <mxCell id="0YILS7i4Pp5YFgNBIdQj-79" value="yes" style="text;html=1;align=center;verticalAlign=middle;whiteSpace=wrap;rounded=0;" vertex="1" parent="1">
          <mxGeometry x="505.00000000000006" y="2470" width="60" height="30" as="geometry" />
        </mxCell>
        <mxCell id="0YILS7i4Pp5YFgNBIdQj-80" value="no" style="text;html=1;align=center;verticalAlign=middle;whiteSpace=wrap;rounded=0;" vertex="1" parent="1">
          <mxGeometry x="410" y="2820" width="60" height="30" as="geometry" />
        </mxCell>
        <mxCell id="0YILS7i4Pp5YFgNBIdQj-81" value="yes" style="text;html=1;align=center;verticalAlign=middle;whiteSpace=wrap;rounded=0;" vertex="1" parent="1">
          <mxGeometry x="520.94" y="2675" width="60" height="30" as="geometry" />
        </mxCell>
        <mxCell id="0YILS7i4Pp5YFgNBIdQj-82" value="no" style="text;html=1;align=center;verticalAlign=middle;whiteSpace=wrap;rounded=0;" vertex="1" parent="1">
          <mxGeometry x="436.25" y="3020" width="60" height="30" as="geometry" />
        </mxCell>
        <mxCell id="0YILS7i4Pp5YFgNBIdQj-83" value="yes" style="text;html=1;align=center;verticalAlign=middle;whiteSpace=wrap;rounded=0;" vertex="1" parent="1">
          <mxGeometry x="500.00000000000006" y="2910" width="60" height="30" as="geometry" />
        </mxCell>
        <mxCell id="0YILS7i4Pp5YFgNBIdQj-87" style="edgeStyle=orthogonalEdgeStyle;rounded=0;orthogonalLoop=1;jettySize=auto;html=1;exitX=1;exitY=0.5;exitDx=0;exitDy=0;" edge="1" parent="1" source="0YILS7i4Pp5YFgNBIdQj-84" target="0YILS7i4Pp5YFgNBIdQj-86">
          <mxGeometry relative="1" as="geometry" />
        </mxCell>
        <mxCell id="0YILS7i4Pp5YFgNBIdQj-88" style="edgeStyle=orthogonalEdgeStyle;rounded=0;orthogonalLoop=1;jettySize=auto;html=1;exitX=0.5;exitY=1;exitDx=0;exitDy=0;" edge="1" parent="1" source="0YILS7i4Pp5YFgNBIdQj-84" target="eXFcgHt2co3P4tRYhQmg-48">
          <mxGeometry relative="1" as="geometry" />
        </mxCell>
        <mxCell id="0YILS7i4Pp5YFgNBIdQj-84" value="is player&#39;s score &amp;gt; dealer&#39;s score?" style="rhombus;whiteSpace=wrap;html=1;" vertex="1" parent="1">
          <mxGeometry x="325" y="3050" width="172.5" height="150" as="geometry" />
        </mxCell>
        <mxCell id="0YILS7i4Pp5YFgNBIdQj-91" style="edgeStyle=orthogonalEdgeStyle;rounded=0;orthogonalLoop=1;jettySize=auto;html=1;exitX=1;exitY=0.5;exitDx=0;exitDy=0;" edge="1" parent="1" source="0YILS7i4Pp5YFgNBIdQj-86">
          <mxGeometry relative="1" as="geometry">
            <mxPoint x="950" y="2940" as="targetPoint" />
          </mxGeometry>
        </mxCell>
        <mxCell id="0YILS7i4Pp5YFgNBIdQj-86" value="give player bank bet * 2" style="rounded=0;whiteSpace=wrap;html=1;" vertex="1" parent="1">
          <mxGeometry x="580.94" y="3080" width="160" height="90" as="geometry" />
        </mxCell>
        <mxCell id="0YILS7i4Pp5YFgNBIdQj-89" value="no" style="text;html=1;align=center;verticalAlign=middle;whiteSpace=wrap;rounded=0;" vertex="1" parent="1">
          <mxGeometry x="410" y="3190" width="60" height="30" as="geometry" />
        </mxCell>
        <mxCell id="0YILS7i4Pp5YFgNBIdQj-90" value="yes" style="text;html=1;align=center;verticalAlign=middle;whiteSpace=wrap;rounded=0;" vertex="1" parent="1">
          <mxGeometry x="500.00000000000006" y="3090" width="60" height="30" as="geometry" />
        </mxCell>
        <mxCell id="0YILS7i4Pp5YFgNBIdQj-93" value="" style="edgeStyle=orthogonalEdgeStyle;rounded=0;orthogonalLoop=1;jettySize=auto;html=1;exitX=1;exitY=0.5;exitDx=0;exitDy=0;" edge="1" parent="1" source="eXFcgHt2co3P4tRYhQmg-56" target="0YILS7i4Pp5YFgNBIdQj-92">
          <mxGeometry relative="1" as="geometry">
            <mxPoint x="950" y="2720" as="targetPoint" />
            <mxPoint x="730" y="2945" as="sourcePoint" />
          </mxGeometry>
        </mxCell>
        <mxCell id="0YILS7i4Pp5YFgNBIdQj-92" value="&quot;Push its a tie&quot;" style="shape=parallelogram;perimeter=parallelogramPerimeter;whiteSpace=wrap;html=1;fixedSize=1;" vertex="1" parent="1">
          <mxGeometry x="750" y="2900" width="165" height="90" as="geometry" />
        </mxCell>
      </root>
    </mxGraphModel>
  </diagram>
</mxfile>
